<mxfile host="app.diagrams.net" modified="2024-05-06T04:55:57.300Z" agent="Mozilla/5.0 (Windows NT 10.0; Win64; x64) AppleWebKit/537.36 (KHTML, like Gecko) Chrome/124.0.0.0 Safari/537.36" version="24.3.1" etag="DMqrc3JfTi3m6Ul1TT9l" type="github">
  <diagram name="Halaman-1" id="kdkY6UxgiOPYUSTHScIG">
    <mxGraphModel>
      <root>
        <mxCell id="0" />
        <mxCell id="1" parent="0" />
      </root>
    </mxGraphModel>
  </diagram>
</mxfile>
